<svg width="280" height="273" viewBox="0 0 280 273" fill="none" xmlns="http://www.w3.org/2000/svg">
<g clip-path="url(#clip0_19_6)">
<path d="M6.643 182.875L7.805 186.375C3.45057 174.954 0.820089 162.948 0 150.752C0.0746002 157.691 0.737306 164.61 1.981 171.437C3.381 178.395 5.264 185.437 8.113 191.849C13.461 204.876 21.91 215.649 30.338 221.9C30.065 223.559 34.09 229.551 38.906 234.57C40.103 235.83 41.307 237.062 42.455 238.196L45.773 241.066C47.754 242.711 49.133 243.782 49.35 243.705L56.399 247.905L63.658 251.818C60.375 249.928 56.959 248.262 53.795 246.218C56.959 248.276 60.375 249.942 63.658 251.818C71.5464 255.811 79.6589 259.345 87.955 262.402C96.5508 265.427 105.33 267.903 114.24 269.815C123.473 271.661 132.834 272.796 142.24 273.21C151.795 273.686 161.476 272.839 171.206 271.565L180.775 269.612C182.703 269.215 184.608 268.71 186.48 268.1L192.703 266.252C194.859 265.622 196.98 264.663 199.206 263.844C201.432 263.025 203.742 262.22 205.94 261.1C210.392 258.958 215.04 256.865 219.38 254.163C223.881 251.741 228.018 248.731 232.12 245.924C234.178 244.524 236.005 242.872 237.902 241.402C239.799 239.932 241.654 238.483 243.271 236.866C246.596 233.751 249.795 230.909 252.315 227.99L256.004 224C257.159 222.768 258.069 221.48 258.979 220.395C261.106 217.865 263.093 215.22 264.929 212.471L263.053 215.166L261.653 216.902L258.153 221.172C265.599 210.711 271.436 199.195 275.471 187.005C274.365 188.86 273.868 189.105 271.495 193.494L274.071 187.957C274.428 186.606 274.687 184.73 275.212 182.721C275.737 180.712 276.402 178.521 276.801 176.204C277.2 173.887 277.641 171.619 278.019 169.519C278.336 167.7 278.528 165.862 278.593 164.017C278.782 164.717 279.048 163.863 279.349 162.351C279.489 161.588 279.664 160.664 279.797 159.663C279.93 158.662 279.958 157.563 280.042 156.562L279.594 158.172C280.392 150.332 279.993 141.855 279.188 133.672C278.558 129.619 278.166 125.573 277.298 121.772C276.92 119.863 276.551 117.997 276.192 116.172L274.89 110.95C274.537 109.573 274.303 108.167 274.19 106.75C272.727 102.55 271.39 98.35 269.654 94.248C270.172 94.605 269.367 91.966 268.758 89.95C268.149 87.934 267.603 86.611 269.052 89.46C264.537 80.535 260.456 71.26 254.828 63.56C245.903 49.21 234.654 35.455 220.682 24.563C206.862 13.4478 190.695 5.62264 173.404 1.68C173.667 1.8227 173.92 1.98412 174.16 2.163C171.171 1.554 168.224 1.183 165.319 0.762996C162.414 0.342996 159.439 0.391996 156.443 0.160996L154.182 -4.33243e-06C153.419 -4.33243e-06 152.649 -4.33243e-06 151.872 -4.33243e-06H147.119C143.878 -0.154004 140.49 0.188996 136.829 0.244996C135.541 0.461996 134.169 0.580996 132.783 0.867996L128.583 1.792C125.741 2.45 122.836 2.905 120.225 3.836C117.614 4.767 115.178 5.46 113.225 6.195C111.679 6.74604 110.218 7.51187 108.885 8.47C106.085 9.408 103.726 10.241 101.591 11.025C99.456 11.809 97.643 12.838 95.788 13.706L90.083 16.422L83.412 20.048C84.91 19.733 82.502 21.161 80.395 22.407C78.288 23.653 76.405 24.934 79.1 23.8C86.394 21.469 86.317 20.342 92.505 18.508L92.225 18.347C106.092 12.866 120.568 9.198 135.142 8.274C149.677 7.29603 164.262 9.19913 178.059 13.874C187.675 16.8565 196.78 21.2896 205.058 27.02C213.588 32.9055 221.382 39.7938 228.27 47.537C235.879 55.9216 242.572 65.0946 248.234 74.9C253.548 84.0712 258.037 93.6968 261.646 103.663C262.337 105.603 262.892 107.589 263.305 109.606C263.662 111.475 263.816 113.295 264.138 115.206C266.623 124.571 268.09 134.177 268.513 143.857C268.999 153.967 268.09 164.095 265.811 173.957C265.902 173.607 265.979 173.257 266.035 173.033C265.81 174.268 265.479 175.481 265.048 176.659L263.9 180.026C263.494 181.125 263.2 182.231 262.717 183.267L261.317 186.354C259.581 190.505 257.243 194.334 254.926 198.835C255.136 198.898 254.303 200.235 253.988 200.935C253.286 201.697 252.675 202.538 252.168 203.441L250.516 206.08L248.206 209.3L245.518 213.08C244.587 214.438 243.418 215.698 242.284 217.098C241.15 218.498 239.988 219.898 238.749 221.347C237.51 222.796 236.117 224.091 234.787 225.477C229.771 230.63 224.319 235.34 218.491 239.554C215.403 241.772 212.184 243.801 208.852 245.63C207.942 246.204 206.934 246.701 205.933 247.24C196.133 252.238 185.353 255.353 174.888 257.25C164.991 259.017 154.953 259.877 144.9 259.819C140.868 260.428 136.297 260.365 132.825 260.757C129.577 259.952 128.856 260.701 124.88 260.127C115.157 256.627 109.361 255.808 114.261 257.74C105.994 256.34 98.049 253.463 91.084 250.922C87.85 249.725 84.574 248.654 81.389 247.226C78.652 246.092 77.259 245.161 76.195 243.999C74.2419 243.077 72.3482 242.035 70.525 240.877C69.419 240.051 68.306 239.155 65.016 236.999C64.0218 236.148 62.9615 235.378 61.845 234.696C60.2 233.583 58.023 232.4 56 230.93C53.977 229.46 51.8 228.13 50.274 226.877C49.1834 226.053 48.1367 225.172 47.138 224.238L48.16 225.022C47.341 224.238 46.55 223.489 45.794 222.754L43.792 220.444C42.553 218.897 41.279 217.532 40.25 215.95C39.221 214.368 38.101 212.884 36.946 211.33C35.791 209.776 34.755 208.033 33.446 206.276C29.9479 201.184 26.8403 195.835 24.15 190.274C22.694 187.509 21.602 184.555 20.342 181.692C19.32 178.724 18.109 175.826 17.311 172.802C13.8189 161.256 12.1654 149.232 12.411 137.172C11.711 136.948 12.607 142.163 11.648 142.45C11.582 135.712 12.1161 128.982 13.244 122.339C14.413 115.705 15.9815 109.148 17.941 102.704C18.7361 100.676 19.6452 98.6938 20.664 96.768C22.421 92.862 21.231 94.29 22.414 91.385L23.17 91.231C24.507 86.842 26.397 85.379 28.133 81.487C28 81.2 28.7 79.751 29.4 78.4C30.051 78.673 31.696 74.326 32.137 74.83V74.767C32.5514 73.98 33.0192 73.2222 33.537 72.499L35.105 69.3L36.442 66.591C36.967 65.646 37.527 64.659 38.087 63.665C40.243 59.619 42.91 55.867 43.33 55.041L43.946 54.474C45.577 52.619 45.955 51.52 44.863 52.493L46.963 50.274L46.753 50.568L48.853 48.37C49.308 48.02 49.994 47.817 49.553 48.629C50.6603 47.2163 51.9055 45.9172 53.27 44.751C49.469 47.677 44.87 51.52 41.09 54.985C42.175 53.172 45.066 50.701 46.543 49C47.6 48.139 49.224 46.858 51.009 45.5C52.794 44.142 54.656 42.525 56.427 41.3C57.127 40.67 57.127 39.655 58.975 38.5C60.081 38.22 60.872 37.009 62.524 36.246C61.797 36.9517 61.0204 37.6044 60.2 38.199L57.827 40.117C58.163 40.25 59.185 39.522 60.298 38.654C61.411 37.786 62.713 36.911 63.42 36.498C63.91 35.875 67.186 33.649 69.23 32.214C68.656 33.313 71.127 31.437 72.534 30.905C73.934 30.023 74.809 29.372 74.095 29.505C74.158 28.553 68.25 32.795 69.839 30.905C70.539 30.842 73.22 28.896 74.795 28.056C74.627 27.734 73.591 28.42 74.424 27.552C76.195 26.635 77.826 25.207 78.995 24.969C78.5171 25.3192 78.006 25.6217 77.469 25.872C78.603 25.249 75.824 27.51 73.171 29.659C70.616 31.983 68.187 34.202 69.51 33.215C69.09 33.362 71.743 30.786 74.599 28.602C77.455 26.418 80.248 24.276 79.499 24.696C78.043 25.326 80.199 23.562 78.701 24.262L77.301 25.55C75.285 26.544 74.165 26.453 74.732 25.851C76.391 24.941 74.347 26.796 72.275 28.651C70.28 30.632 68.243 32.571 69.475 31.549L68.299 32.116C69.314 31.206 72.191 28.966 73.619 28.616C73.5 28.301 75.04 27.3 76.3 26.425L76.797 26.208C78.071 25.277 80.024 24.262 78.897 24.353C74.9 26.663 75.761 25.13 76.685 23.527C77.609 21.924 78.582 20.251 74.529 22.442C78.267 21.231 73.78 23.765 70.329 25.872C69.867 25.872 68.159 26.509 65.604 27.93C63.504 29.33 64.519 28.98 64.204 29.407C62.937 30.023 60.746 31.549 60.767 30.989C59.493 32.564 58.037 32.592 56.273 34.181C54.824 35.7 56.511 34.258 55.573 35.399L51.513 38.689C50.113 39.816 48.902 41.027 47.95 41.832C46.991 42.203 44.366 43.75 45.507 41.832C49.007 38.598 44.87 43.792 48.377 40.278C46.207 41.083 51.401 37.079 51.73 36.078C50.7242 36.6072 49.7843 37.2534 48.93 38.003C47.929 38.906 46.872 39.942 45.934 40.915L46.48 40.6C45.675 41.482 44.38 42.7 43.148 44.03C42.0468 45.2589 40.8457 46.3945 39.557 47.425C39.746 46.767 38.801 47.425 39.942 46.102L37.66 48.496C37.464 48.881 37.268 49.28 37.926 48.594C37.1634 49.817 36.2193 50.9169 35.126 51.856C34.4631 52.5516 33.8677 53.3087 33.348 54.117C32.41 55.475 31.304 57.344 30.177 59.15C27.93 62.769 26.152 66.5 26.166 66.213C24.864 68.173 24.227 68.453 23.366 70.602C23.9738 69.6578 24.5164 68.6732 24.99 67.655L28.7 61.229C31.5 56.77 34.3 52.654 33.404 53.935C32.648 54.635 28.805 60.179 25.634 66.003C23.982 68.873 22.617 71.883 21.392 74.109C20.321 76.426 19.523 78.05 19.215 78.309C18.431 79.863 17.591 81.809 18.088 81.571C16.758 84.196 17.864 80.493 16.737 82.271C16.737 82.334 16.954 82.18 16.681 82.789L15.477 84.476C14.077 88.851 11.179 94.976 10.458 99.799C10.4303 97.7142 10.6274 95.6325 11.046 93.59L11.396 93.135C11.459 92.687 12.25 90.251 11.914 90.195C11.304 91.482 10.7734 92.8052 10.325 94.157C9.926 95.501 9.625 96.88 9.282 98.42C9.023 98.945 8.736 99.561 8.512 99.96C8.561 99.96 8.61 99.925 8.652 99.96C8.148 100.877 8.148 100.765 8.134 100.373C8.12585 100.299 8.12585 100.223 8.134 100.149C7.364 100.898 6.825 103.796 6.181 107.114C5.684 110.46 5.124 114.226 4.508 116.914C4.41 118.517 4.655 117.089 4.543 119.084C3.899 121.793 3.535 124.11 3.143 126.469C2.751 128.828 2.506 131.229 2.261 134.169C2.604 136.045 2.765 136.178 3.304 133.959C3.171 135.415 3.087 136.871 3.08 138.334C1.932 134.26 2.1 146.524 0.924 142.1C0.616 143.409 0.812 146.083 1.12 148.561C1.463 148.785 1.82 149.156 2.177 152.257C2.345 156.618 2.24 155.589 2.464 159.208C2.247 160.111 1.883 158.816 1.617 159.012C3.017 164.465 1.575 164.003 2.863 169.19C3.563 172.459 5.663 178.731 6.279 178.696C7.7 182.966 7.294 183.12 6.643 182.875Z" fill="black"/>
<path d="M88.27 110.53V102.83H43.82V110.53H62.44V155.05H69.86V110.53H88.27ZM126.42 136.64C126.42 144.48 119.49 148.82 112.63 148.82C105.7 148.82 98.7 145.11 98.7 136.92C98.7 128.73 105.56 125.02 112.56 125.02C119.42 125.02 126.42 128.52 126.42 136.64ZM133.98 136.57C133.98 123.97 123.48 117.6 112.56 117.6C101.71 117.6 91.14 124.46 91.14 136.78C91.14 149.03 101.5 156.17 112.49 156.17C123.48 156.17 133.98 148.89 133.98 136.57ZM165.2 126C172.2 126 176.19 129.71 176.19 136.78C176.19 143.78 172.2 147.77 165.2 147.77H157.99V126H165.2ZM145.95 126H150.43V155.05H165.2C176.26 155.05 183.54 147.91 183.54 136.64C183.54 125.09 176.12 118.79 165.2 118.79H142.73L145.95 126ZM228.62 136.64C228.62 144.48 221.69 148.82 214.83 148.82C207.9 148.82 200.9 145.11 200.9 136.92C200.9 128.73 207.76 125.02 214.76 125.02C221.62 125.02 228.62 128.52 228.62 136.64ZM236.18 136.57C236.18 123.97 225.68 117.6 214.76 117.6C203.91 117.6 193.34 124.46 193.34 136.78C193.34 149.03 203.7 156.17 214.69 156.17C225.68 156.17 236.18 148.89 236.18 136.57Z" fill="black"/>
</g>
<defs>
<clipPath id="clip0_19_6">
<rect width="280" height="273" fill="white"/>
</clipPath>
</defs>
</svg>
